# xmcd
#
# Track frame offsets:
#	150
#	14918
#	28735
#	43982
#	53814
#	68857
#	83601
#	100337
#	112150
#	127534
#	141696
#	163158
#
# Disc length: 2382 seconds
#
# Revision: 1
# Processed by: cddbd v1.5.2PL0 Copyright (c) Steve Scherf et al.
# Submitted via: audiograbber 1.83.01
#
DISCID=af094c0c
DTITLE=Peter Denahy - Picture In A Frame
DYEAR=2008
DGENRE=Country
TTITLE0=Granny's Bric A Brac
TTITLE1=The Ringing Of The Steel
TTITLE2=Picture In A Frame
TTITLE3=Sort Of Dunno Nothin'
TTITLE4=If I Had A Boat
TTITLE5=Cranky Mama
TTITLE6=Miles And Lena
TTITLE7=Old Pine Tree
TTITLE8=Aunty Aggie
TTITLE9=I Wonder What They Think Of Me Now
TTITLE10=Good Light In Broome
TTITLE11=The Mason's Apron
EXTD=
EXTT0=3:16
EXTT1=3:04
EXTT2=3:23
EXTT3=2:11
EXTT4=3:20
EXTT5=3:16
EXTT6=3:43
EXTT7=2:37
EXTT8=3:25
EXTT9=3:08
EXTT10=4:46
EXTT11=3:26
PLAYORDER=
